#!OML:ASF I:\Actors\actors\Patient Classification 1\Patient 1\Session 1\Subject1.ASF
:FULLY-SPECIFIED
:DEGREES
327
root 1.46118 17.7586 9.86595 19.3883 25.5221 -16.0015
lowerback 12.7152 4.52435 -3.06097
upperback -2.69432 4.89097 -7.02863
thorax -9.70963 2.29886 -6.94906
lowerneck -17.5758 3.20089 4.04947
upperneck 7.56341 2.18284 11.5087
head 5.09702 2.10802 3.20548
rclavicle 8.74653e-014 1.27222e-014
rhumerus 37.9097 44.4072 -80.8373
rradius 59.3365
rwrist -40.8932
rhand 15.1068 -72.8105
rfingers 7.12502
rthumb 39.9522 -261.949
lclavicle 8.74653e-014 1.27222e-014
lhumerus 25.7087 -18.0822 56.5992
lradius 51.2972
lwrist 72.1019
lhand -15.808 27.6333
lfingers 7.12502
lthumb 10.3853 57.3568
rfemur -11.9042 31.2884 27.8195
rtibia -1.91315
rfoot -38.8146 -47.1413
rtoes 27.7452
lfemur -26.3878 -40.6065 16.2232
ltibia -1.8566
lfoot -4.44319 41.3219
ltoes -4.15234
328
root 1.48669 17.7533 9.89271 19.3936 25.4982 -15.8749
lowerback 12.5173 4.47606 -3.24176
upperback -2.86664 4.80611 -6.97936
thorax -9.81303 2.26755 -6.77116
lowerneck -17.4566 3.32633 4.35183
upperneck 7.72584 2.29905 11.2735
head 5.12905 2.16086 3.09386
rclavicle -8.26944e-014 8.90555e-014
rhumerus 33.7713 45.6046 -81.8934
rradius 62.8603
rwrist -41.9442
rhand 13.3843 -72.6675
rfingers 7.12502
rthumb 38.3287 -261.624
lclavicle -8.26944e-014 8.90555e-014
lhumerus 21.8757 -19.8814 56.7345
lradius 54.7547
lwrist 74.4271
lhand -16.863 27.6218
lfingers 7.12502
lthumb 9.36751 57.3937
rfemur -11.7357 31.1371 27.745
rtibia -1.84452
rfoot -38.5139 -47.0343
rtoes 27.3163
lfemur -26.0651 -40.6553 15.8248
ltibia -1.97191
lfoot -4.44214 41.2033
ltoes -4.31575
329
root 1.51497 17.7548 9.91577 19.252 25.6309 -15.7221
lowerback 12.5677 4.38499 -3.41043
upperback -2.95879 4.6569 -6.86599
thorax -9.98086 2.20461 -6.53603
lowerneck -17.5216 3.43091 4.40858
upperneck 7.93164 2.40555 11.2061
head 5.20131 2.22112 3.07977
rclavicle -1.27222e-014 3.18055e-014
rhumerus 29.1822 46.7473 -83.2299
rradius 66.5788
rwrist -43.1029
rhand 11.406 -72.7232
rfingers 7.12502
rthumb 36.4587 -261.074
lclavicle -1.27222e-014 3.18055e-014
lhumerus 17.926 -21.6042 57.2956
lradius 58.1178
lwrist 75.8047
lhand -18.02 27.5877
lfingers 7.12502
lthumb 8.25101 57.4066
rfemur -11.3723 30.7945 27.7348
rtibia -1.83083
rfoot -38.5552 -46.7111
rtoes 27.4836
lfemur -25.7255 -40.6752 15.2825
ltibia -1.94649
lfoot -4.40694 40.7973
ltoes -4.69672
330
root 1.54479 17.7546 9.94021 19.1153 25.7843 -15.6203
lowerback 12.5595 4.27079 -3.47902
upperback -3.03682 4.49783 -6.76864
thorax -10.0884 2.13294 -6.36403
lowerneck -17.7184 3.50724 4.3107
upperneck 8.19154 2.47352 11.3188
head 5.31082 2.27789 3.14929
rclavicle 3.18055e-015 -1.59028e-014
rhumerus 24.3179 47.7762 -84.9373
rradius 70.189
rwrist -44.2489
rhand 11.0274 -73.0262
rfingers 7.12502
rthumb 36.1001 -260.682
lclavicle 3.18055e-015 -1.59028e-014
lhumerus 13.8897 -23.1376 58.0923
lradius 61.2994
lwrist 76.6454
lhand -18.7852 27.5263
lfingers 7.12502
lthumb 7.51246 57.3729
rfemur -11.0376 30.4215 27.7542
rtibia -1.82311
rfoot -38.5289 -46.4216
rtoes 27.535
lfemur -25.4329 -40.834 14.8734
ltibia -1.94956
lfoot -4.43867 40.5859
ltoes -4.82319
331
root 1.57458 17.7499 9.97002 19.0858 25.8607 -15.5337
lowerback 12.344 4.1819 -3.60927
upperback -3.15559 4.37555 -6.68537
thorax -10.1203 2.08508 -6.16228
lowerneck -17.8041 3.61638 4.4407
upperneck 8.39405 2.56933 11.2412
head 5.38754 2.3352 3.12049
rclavicle -1.27222e-014 -6.04305e-014
rhumerus 19.1637 48.6874 -87.0933
rradius 73.5058
rwrist -45.3227
rhand 11.8622 -73.3631
rfingers 7.12502
rthumb 36.8903 -260.544
lclavicle -1.27222e-014 -6.04305e-014
lhumerus 9.80966 -24.365 59.166
lradius 64.1458
lwrist 77.4901
lhand -18.8558 27.55
lfingers 7.12502
lthumb 7.44438 57.3991
rfemur -10.8063 30.0794 27.7513
rtibia -1.82425
rfoot -38.1643 -46.2822
rtoes 26.9987
lfemur -25.1631 -41.1385 14.6078
ltibia -2.10091
lfoot -4.42106 40.6907
ltoes -4.77997
332
root 1.60374 17.7449 10.0028 19.0821 25.917 -15.4247
lowerback 12.1133 4.09241 -3.78677
upperback -3.28851 4.24629 -6.59294
thorax -10.1628 2.03714 -5.92309
lowerneck -17.7766 3.73594 4.5823
upperneck 8.51895 2.69984 11.1175
head 5.42045 2.3989 3.07326
rclavicle -4.92986e-014 -4.77083e-014
rhumerus 13.8657 49.5632 -89.4652
rradius 76.4947
rwrist -46.2643
rhand 12.2121 -73.7228
rfingers 7.12502
rthumb 37.2213 -260.27
lclavicle -4.92986e-014 -4.77083e-014
lhumerus 5.75817 -25.2393 60.5092
lradius 66.6941
lwrist 78.6586
lhand -18.9065 27.7054
lfingers 7.12502
lthumb 7.39538 57.5561
rfemur -10.5753 29.9643 27.7002
rtibia -1.82197
rfoot -38.1086 -46.1965
rtoes 26.7261
lfemur -24.86 -41.3796 14.3009
ltibia -2.29255
lfoot -4.33612 40.7472
ltoes -4.86121
333
root 1.63329 17.7424 10.0342 19.1058 25.947 -15.323
lowerback 11.8699 3.98353 -3.90719
upperback -3.42807 4.10083 -6.50917
thorax -10.1997 1.97817 -5.72211
lowerneck -17.6956 3.84445 4.64934
upperneck 8.67689 2.83429 10.9862
head 5.45393 2.46078 3.03488
rclavicle 1.90833e-014 3.18055e-015
rhumerus 8.80124 50.4925 -91.7181
rradius 79.0697
rwrist -46.9593
rhand 10.6187 -73.6606
rfingers 7.12502
rthumb 35.7129 -259.953
lclavicle 1.90833e-014 3.18055e-015
lhumerus 1.72723 -25.9095 61.9169
lradius 69.1845
lwrist 80.06
lhand -19.7566 27.621
lfingers 7.12502
lthumb 6.57479 57.4989
rfemur -10.3855 30.1406 27.592
rtibia -1.81754
rfoot -38.6982 -46.0965
rtoes 27.0019
lfemur -24.6422 -41.6279 14.0491
ltibia -2.40264
lfoot -4.43127 40.8418
ltoes -4.64492
334
root 1.66263 17.7411 10.062 19.1431 25.9506 -15.21
lowerback 11.6332 3.85544 -3.96687
upperback -3.57649 3.93557 -6.46072
thorax -10.2435 1.90485 -5.59236
lowerneck -17.5495 3.96644 4.90858
upperneck 8.86979 2.97134 10.6104
head 5.49345 2.51077 2.88731
rclavicle 4.77083e-015 3.49861e-014
rhumerus 4.20268 51.4948 -93.8032
rradius 81.1252
rwrist -47.6849
rhand 11.4128 -73.7169
rfingers 7.12502
rthumb 36.4651 -260.082
lclavicle 4.77083e-015 3.49861e-014
lhumerus -2.21907 -26.3778 63.3077
lradius 72.0357
lwrist 82.7891
lhand -23.1861 28.2921
lfingers 7.12502
lthumb 3.26343 58.2468
rfemur -10.2147 30.3102 27.4607
rtibia -1.81708
rfoot -39.4312 -45.9276
rtoes 27.2028
lfemur -24.5135 -42.0109 13.8511
ltibia -2.41743
lfoot -4.72185 41.0815
ltoes -4.17238
335
root 1.68869 17.741 10.086 19.0847 25.9097 -15.1065
lowerback 11.5357 3.74554 -3.93376
upperback -3.70103 3.79332 -6.47678
thorax -10.33 1.83316 -5.60229
lowerneck -17.4138 4.04491 5.11307
upperneck 8.98368 3.0551 10.3824
head 5.51029 2.54192 2.78915
rclavicle 4.6118e-014 -1.90833e-014
rhumerus 0.184651 52.2954 -95.8856
rradius 82.5307
rwrist -48.3719
rhand 12.0479 -73.8895
rfingers 7.12502
rthumb 37.066 -260.063
lclavicle 4.6118e-014 -1.90833e-014
lhumerus -5.6867 -26.5954 64.5804
lradius 73.8689
lwrist 83.1632
lhand -23.1696 28.1745
lfingers 7.12502
lthumb 3.27936 58.1291
rfemur -9.96533 30.499 27.3649
rtibia -1.79413
rfoot -40.1677 -45.6575
rtoes 27.7246
lfemur -24.2281 -42.2962 13.525
ltibia -2.43759
lfoot -4.91079 41.172
ltoes -3.96822
336
root 1.71017 17.743 10.1065 18.9407 25.7735 -15.082
lowerback 11.4715 3.70104 -3.82897
upperback -3.74525 3.75065 -6.50441
thorax -10.3347 1.80527 -5.68079
lowerneck -17.5138 4.04872 4.89314
upperneck 9.08348 3.06648 10.6022
head 5.55201 2.5642 2.90036
rclavicle -9.06458e-014 1.59028e-014
rhumerus -3.20625 52.6458 -97.8218
rradius 83.4387
rwrist -48.6141
rhand 12.0671 -74.0767
rfingers 7.12502
rthumb 37.0842 -259.881
lclavicle -9.06458e-014 1.59028e-014
lhumerus -8.30825 -26.565 65.635
lradius 74.5834
lwrist 81.5023
lhand -20.0121 27.1868
lfingers 7.12502
lthumb 6.32813 57.0723
rfemur -9.68462 30.5177 27.3997
rtibia -1.76906
rfoot -40.1951 -45.4876
rtoes 27.7703
lfemur -23.7601 -42.4694 13.158
ltibia -2.52334
lfoot -5.05322 41.2327
ltoes -3.6896
337
root 1.72791 17.7451 10.1242 18.8719 25.5039 -15.0703
lowerback 11.2366 3.71584 -3.74459
upperback -3.73757 3.80042 -6.54058
thorax -10.1758 1.82637 -5.75422
lowerneck -17.7842 4.03495 4.48646
upperneck 9.22035 3.06596 10.9377
head 5.62908 2.5894 3.08329
rclavicle -1.25632e-013 -2.8625e-014
rhumerus -4.56569 53.7348 -98.2922
rradius 83.5895
rwrist -49.2864
rhand 11.8435 -73.3393
rfingers 7.12502
rthumb 36.8726 -260.563
lclavicle -1.25632e-013 -2.8625e-014
lhumerus -10.0353 -26.2604 66.4849
lradius 75.8868
lwrist 83.8758
lhand -23.1839 28.0266
lfingers 7.12502
lthumb 3.26549 57.9813
rfemur -9.52332 30.0934 27.4764
rtibia -1.74711
rfoot -39.058 -45.4625
rtoes 26.6563
lfemur -23.3403 -42.7141 12.8706
ltibia -2.61111
lfoot -5.36298 41.5892
ltoes -2.84201
338
root 1.73925 17.7479 10.1367 18.8661 25.1386 -15.0534
lowerback 10.9562 3.77585 -3.60143
upperback -3.77925 3.91039 -6.69096
thorax -10.0295 1.86906 -5.9982
lowerneck -17.9349 3.99539 4.45422
upperneck 9.39378 2.98026 11.0043
head 5.71153 2.56432 3.11076
rclavicle -9.54166e-015 -7.63333e-014
rhumerus -5.15434 54.5626 -98.5946
rradius 83.5114
rwrist -49.6537
rhand 11.9047 -73.7153
rfingers 7.12502
rthumb 36.9306 -260.202
lclavicle -9.54166e-015 -7.63333e-014
lhumerus -10.8845 -25.819 66.9716
lradius 76.1967
lwrist 84.6152
lhand -24.358 29.3402
lfingers 7.12502
lthumb 2.13165 59.3093
rfemur -9.49992 29.7276 27.4883
rtibia -1.66177
rfoot -38.1819 -45.2726
rtoes 26.2505
lfemur -23.0108 -42.8083 12.5947
ltibia -2.62075
lfoot -5.51649 41.9319
ltoes -2.33168
339
root 1.74186 17.7536 10.142 18.7717 24.7236 -15.0743
lowerback 10.8086 3.84297 -3.45833
upperback -3.89888 4.00911 -6.89567
thorax -10.0449 1.9007 -6.32057
lowerneck -17.8712 3.92898 4.68447
upperneck 9.69648 2.80714 11.0148
head 5.80977 2.50329 3.06733
rclavicle 2.38542e-014 -3.81667e-014
rhumerus -4.93588 55.3439 -98.8448
rradius 83.0012
rwrist -49.821
rhand 12.4828 -73.4193
rfingers 7.12502
rthumb 37.4772 -260.641
lclavicle 2.38542e-014 -3.81667e-014
lhumerus -11.0934 -25.2846 67.0046
lradius 75.9085
lwrist 84.363
lhand -24.856 27.8257
lfingers 7.12502
lthumb 1.65064 57.7991
rfemur -9.4655 29.4542 27.5452
rtibia -1.50138
rfoot -37.8215 -44.7833
rtoes 26.7368
lfemur -22.5542 -42.6678 12.2137
ltibia -2.61083
lfoot -5.43574 42.056
ltoes -2.50684
